# File created by Blade
# Date/Time:  Mon Sep 22 15:50:36 2014
# Frame Rate: 120.000 fps
#------------------------------------------------------
:FULLY-SPECIFIED
:DEGREES
1594
root 1.346616 36.953310 3.652561 0.165503 -10.243574 0.757071
RightUpLeg 8.045454 0.855371 -1.703434
RightLeg -5.088952 -0.000000 0.000000
RightFoot -12.682649 -14.760140 14.400410
RightToeBase 14.031385 -0.000000 -0.000000
LeftUpLeg 9.792025 7.660875 3.447415
LeftLeg -4.393917 -0.000000 0.000000
LeftFoot -10.934522 14.820048 -19.316994
LeftToeBase 9.321997 -0.000000 -0.000000
Spine -6.133395 -17.134682 -7.747665
RightShoulder 8.507652 -23.381452 -12.898288
RightArm 27.514624 -37.368172 56.680568
RightForeArm 13.297187 -0.000000 28.986677
RightHand 1.616710 -0.000000 2.825492
RightHandThumb1 -24.326973 -0.000000 -32.862282
LeftShoulder -11.074497 16.692899 12.536146
LeftArm 104.171513 -34.437905 -138.123644
LeftForeArm -52.104987 -0.000000 106.227700
LeftHand -17.583827 0.000000 48.256320
LeftHandThumb1 -26.253704 0.000000 33.147579
Head 22.675580 19.930608 16.919990
1595
root 1.358250 36.954241 3.653482 0.079818 -10.100768 0.792981
RightUpLeg 8.114611 0.699235 -1.757434
RightLeg -5.031711 -0.000000 0.000000
RightFoot -12.732811 -14.726777 14.436606
RightToeBase 14.058164 -0.000000 -0.000000
LeftUpLeg 9.811443 7.521259 3.400979
LeftLeg -4.326619 -0.000000 0.000000
LeftFoot -10.954726 14.819399 -19.274618
LeftToeBase 9.365972 -0.000000 -0.000000
Spine -6.019157 -17.143591 -7.732036
RightShoulder 8.542634 -23.353423 -12.858153
RightArm 27.522948 -37.385362 56.653007
RightForeArm 13.346623 -0.000000 28.992754
RightHand 1.637085 -0.000000 2.875742
RightHandThumb1 -24.326973 -0.000000 -32.862282
LeftShoulder -10.904295 16.747104 12.649880
LeftArm 103.962854 -34.195031 -138.018830
LeftForeArm -51.964953 0.000000 106.232211
LeftHand -17.372982 -0.000000 47.792720
LeftHandThumb1 -26.253704 0.000000 33.147579
Head 22.686870 19.987505 16.774205
1596
root 1.369819 36.956159 3.653344 0.034605 -9.970043 0.812256
RightUpLeg 8.135715 0.568053 -1.790140
RightLeg -4.962890 -0.000000 0.000000
RightFoot -12.771372 -14.733701 14.433962
RightToeBase 14.060384 -0.000000 -0.000000
LeftUpLeg 9.800144 7.391144 3.359382
LeftLeg -4.275144 -0.000000 0.000000
LeftFoot -10.978548 14.846702 -19.294869
LeftToeBase 9.356153 -0.000000 -0.000000
Spine -5.973441 -17.133592 -7.652772
RightShoulder 8.597566 -23.386710 -12.870070
RightArm 27.560281 -37.368121 56.629543
RightForeArm 13.360533 -0.000000 29.046461
RightHand 1.631330 -0.000000 2.762140
RightHandThumb1 -24.326973 -0.000000 -32.862282
LeftShoulder -10.712132 16.813791 12.761113
LeftArm 103.722760 -33.960115 -137.912316
LeftForeArm -51.935722 -0.000000 106.220088
LeftHand -17.116230 -0.000000 47.122728
LeftHandThumb1 -26.253704 0.000000 33.147579
Head 22.744807 20.045304 16.555494
1597
root 1.381447 36.957981 3.653832 -0.008495 -9.795740 0.840159
RightUpLeg 8.163532 0.374314 -1.833858
RightLeg -4.904672 -0.000000 0.000000
RightFoot -12.808300 -14.725439 14.455131
RightToeBase 14.082787 -0.000000 -0.000000
LeftUpLeg 9.780148 7.246810 3.315611
LeftLeg -4.224675 -0.000000 0.000000
LeftFoot -10.974407 14.833209 -19.269805
LeftToeBase 9.359301 -0.000000 -0.000000
Spine -5.930678 -17.183473 -7.582730
RightShoulder 8.661505 -23.379938 -12.853535
RightArm 27.579233 -37.393018 56.592169
RightForeArm 13.411814 -0.000000 29.093631
RightHand 1.697809 -0.000000 2.743421
RightHandThumb1 -24.326973 -0.000000 -32.862282
LeftShoulder -10.525638 16.841775 12.876847
LeftArm 103.440226 -33.696256 -137.758843
LeftForeArm -51.768031 -0.000000 106.205140
LeftHand -16.746423 -0.000000 46.489652
LeftHandThumb1 -26.253704 0.000000 33.147579
Head 22.819131 20.102683 16.343243
1598
root 1.392665 36.960559 3.652309 -0.043716 -9.622353 0.860194
RightUpLeg 8.189938 0.230989 -1.863639
RightLeg -4.847947 -0.000000 0.000000
RightFoot -12.829098 -14.758052 14.465424
RightToeBase 14.022340 -0.000000 -0.000000
LeftUpLeg 9.757150 7.124095 3.287147
LeftLeg -4.183395 -0.000000 0.000000
LeftFoot -10.934758 14.784823 -19.205890
LeftToeBase 9.347738 -0.000000 -0.000000
Spine -5.901142 -17.225839 -7.501563
RightShoulder 8.715754 -23.419419 -12.841095
RightArm 27.632633 -37.367589 56.571605
RightForeArm 13.406891 -0.000000 29.161515
RightHand 1.637843 -0.000000 2.688207
RightHandThumb1 -24.326973 -0.000000 -32.862282
LeftShoulder -10.308037 16.929344 12.994770
LeftArm 103.180047 -33.429049 -137.564838
LeftForeArm -51.440332 -0.000000 106.198829
LeftHand -16.580275 -0.000000 45.765916
LeftHandThumb1 -26.253704 0.000000 33.147579
Head 22.901440 20.130658 16.105127
1599
root 1.405767 36.961764 3.648812 -0.072654 -9.429958 0.898124
RightUpLeg 8.206666 0.094855 -1.913341
RightLeg -4.797804 -0.000000 0.000000
RightFoot -12.883797 -14.805832 14.494117
RightToeBase 14.056348 -0.000000 -0.000000
LeftUpLeg 9.725560 6.977511 3.229404
LeftLeg -4.157037 -0.000000 0.000000
LeftFoot -10.926413 14.771639 -19.211750
LeftToeBase 9.355641 -0.000000 -0.000000
Spine -5.871576 -17.282719 -7.448883
RightShoulder 8.769237 -23.423230 -12.807413
RightArm 27.644163 -37.379868 56.535976
RightForeArm 13.508892 -0.000000 29.259828
RightHand 1.712075 -0.000000 2.712418
RightHandThumb1 -24.326973 -0.000000 -32.862282
LeftShoulder -10.088614 16.949355 13.144996
LeftArm 102.795717 -33.201347 -137.225664
LeftForeArm -51.071712 -0.000000 106.182876
LeftHand -16.231006 0.000000 44.887534
LeftHandThumb1 -26.253704 0.000000 33.147579
Head 22.971673 20.174034 15.934889
1600
root 1.421725 36.962259 3.646831 -0.125422 -9.244524 0.951866
RightUpLeg 8.243973 -0.053656 -1.984470
RightLeg -4.753321 -0.000000 0.000000
RightFoot -12.957783 -14.839306 14.518616
RightToeBase 14.176610 -0.000000 -0.000000
LeftUpLeg 9.725886 6.876801 3.161548
LeftLeg -4.145235 -0.000000 0.000000
LeftFoot -10.887559 14.715967 -19.168688
LeftToeBase 9.369697 -0.000000 -0.000000
Spine -5.807348 -17.314886 -7.401119
RightShoulder 8.789389 -23.404096 -12.763732
RightArm 27.719547 -37.433089 56.459036
RightForeArm 13.517519 -0.000000 29.349975
RightHand 1.721020 -0.000000 2.714743
RightHandThumb1 -24.326973 -0.000000 -32.862282
LeftShoulder -9.887702 16.978620 13.251662
LeftArm 102.400829 -32.918474 -136.772082
LeftForeArm -50.688273 -0.000000 106.140067
LeftHand -15.937913 -0.000000 43.806850
LeftHandThumb1 -26.253704 0.000000 33.147579
Head 22.999411 20.211112 15.680385
1601
root 1.435945 36.962666 3.646067 -0.176401 -9.022024 1.004888
RightUpLeg 8.304863 -0.177630 -2.046001
RightLeg -4.733279 -0.000000 0.000000
RightFoot -13.018217 -14.933386 14.528556
RightToeBase 14.161995 -0.000000 -0.000000
LeftUpLeg 9.720004 6.800195 3.105885
LeftLeg -4.129906 -0.000000 0.000000
LeftFoot -10.821303 14.600637 -19.108315
LeftToeBase 9.344706 -0.000000 -0.000000
Spine -5.740702 -17.382870 -7.367796
RightShoulder 8.799481 -23.333090 -12.704733
RightArm 27.705711 -37.513695 56.447873
RightForeArm 13.611953 0.000000 29.471617
RightHand 1.828286 0.000000 2.492524
RightHandThumb1 -24.326973 -0.000000 -32.862282
LeftShoulder -9.715269 17.027501 13.358236
LeftArm 101.917775 -32.645650 -136.109011
LeftForeArm -50.440803 -0.000000 106.073923
LeftHand -15.210803 -0.000000 42.507382
LeftHandThumb1 -26.253704 0.000000 33.147579
Head 23.005845 20.207900 15.435833
1602
root 1.449986 36.963402 3.645000 -0.223001 -8.782458 1.046997
RightUpLeg 8.363258 -0.348122 -2.098146
RightLeg -4.710699 -0.000000 0.000000
RightFoot -13.073402 -15.008811 14.553140
RightToeBase 14.193302 -0.000000 -0.000000
LeftUpLeg 9.707257 6.706336 3.060759
LeftLeg -4.111187 -0.000000 0.000000
LeftFoot -10.757177 14.484113 -19.042164
LeftToeBase 9.348204 -0.000000 -0.000000
Spine -5.675851 -17.480471 -7.308942
RightShoulder 8.821060 -23.357048 -12.679132
RightArm 27.821665 -37.530998 56.385542
RightForeArm 13.623433 0.000000 29.587126
RightHand 1.778014 -0.000000 2.651140
RightHandThumb1 -24.326973 -0.000000 -32.862282
LeftShoulder -9.586282 17.048206 13.435552
LeftArm 101.318672 -32.373326 -135.229912
LeftForeArm -50.398064 -0.000000 105.934613
LeftHand -14.401862 -0.000000 40.863155
LeftHandThumb1 -26.253704 0.000000 33.147579
Head 22.995701 20.191367 15.132318
1603
root 1.464298 36.963631 3.643863 -0.284927 -8.530644 1.104602
RightUpLeg 8.448153 -0.495590 -2.163305
RightLeg -4.706452 -0.000000 0.000000
RightFoot -13.139771 -15.115993 14.583585
RightToeBase 14.219658 -0.000000 -0.000000
LeftUpLeg 9.706705 6.614326 3.002925
LeftLeg -4.093422 -0.000000 0.000000
LeftFoot -10.699410 14.353064 -19.025091
LeftToeBase 9.392197 -0.000000 -0.000000
Spine -5.588497 -17.571118 -7.288966
RightShoulder 8.829442 -23.449301 -12.635295
RightArm 28.020955 -37.513565 56.259272
RightForeArm 13.628925 0.000000 29.716399
RightHand 1.859568 -0.000000 2.492420
RightHandThumb1 -24.326973 -0.000000 -32.862282
LeftShoulder -9.443275 17.082601 13.540662
LeftArm 100.687136 -32.127849 -134.212886
LeftForeArm -50.372822 0.000000 105.776099
LeftHand -13.940206 0.000000 38.889036
LeftHandThumb1 -26.253704 0.000000 33.147579
Head 22.970625 20.143792 14.858054
1604
root 1.478388 36.963138 3.643744 -0.360002 -8.273687 1.166144
RightUpLeg 8.565136 -0.627135 -2.232483
RightLeg -4.736094 -0.000000 0.000000
RightFoot -13.196447 -15.239270 14.611075
RightToeBase 14.237242 -0.000000 -0.000000
LeftUpLeg 9.724155 6.526986 2.943804
LeftLeg -4.083144 -0.000000 0.000000
LeftFoot -10.626635 14.209237 -18.954989
LeftToeBase 9.364809 -0.000000 -0.000000
Spine -5.489713 -17.643112 -7.295396
RightShoulder 8.827127 -23.541083 -12.591412
RightArm 28.239912 -37.513832 56.142175
RightForeArm 13.583464 -0.000000 29.820325
RightHand 1.936320 -0.000000 2.422064
RightHandThumb1 -24.326973 -0.000000 -32.862282
LeftShoulder -9.273453 17.071663 13.674222
LeftArm 99.855918 -31.958165 -132.861178
LeftForeArm -50.432418 -0.000000 105.624085
LeftHand -13.281596 -0.000000 36.943026
LeftHandThumb1 -26.253704 0.000000 33.147579
Head 22.958939 20.071026 14.649540
